<?xml version="1.0" encoding="utf-8"?>
<svg version="1.1" id="Layer_1" x="0px" y="0px" viewBox="0 0 511.997 511.997" style="enable-background:new 0 0 511.997 511.997;" xmlns="http://www.w3.org/2000/svg">
  <g>
    <g>
      <path d="M479.996,458.777V10.664C479.996,4.773,475.23,0,469.34,0H74.673C51.11,0,32,19.102,32,42.664c0,0,0,0.008,0,0.016&#10;&#9;&#9;&#9;v437.317c0,17.672,14.344,32,32,32h405.34c5.891,0,10.656-4.781,10.656-10.672s-4.766-10.672-10.656-10.672v-21.219&#10;&#9;&#9;&#9;C475.23,469.434,479.996,464.668,479.996,458.777z M64.001,490.652c-5.875,0-10.656-4.781-10.656-10.656&#10;&#9;&#9;&#9;c0-5.375,4-9.844,9.188-10.562H446.56c-5.219,0.719-9.219,5.156-9.219,10.562c0,5.891,4.781,10.656,10.656,10.656H64.001z&#10;&#9;&#9;&#9; M458.669,448.106H64.001v-0.109c-0.859,0-1.719,0.031-2.578,0.109h-8.078v-10.547V42.664c0-11.758,9.562-21.328,21.328-21.328&#10;&#9;&#9;&#9;h383.997V448.106z"/>
    </g>
  </g>
  <g>
    <g/>
  </g>
  <g>
    <g/>
  </g>
  <g>
    <g/>
  </g>
  <g/>
  <g/>
  <g/>
  <g/>
  <g/>
  <g/>
  <g/>
  <g/>
  <g/>
  <g/>
  <g/>
  <g/>
  <g/>
  <g/>
  <g/>
</svg>