<?xml version="1.0" encoding="utf-8"?>
<!-- Svg Vector Icons : http://www.onlinewebfonts.com/icon -->
<!DOCTYPE svg PUBLIC "-//W3C//DTD SVG 1.1//EN" "http://www.w3.org/Graphics/SVG/1.1/DTD/svg11.dtd">
<svg version="1.1" xmlns="http://www.w3.org/2000/svg" xmlns:xlink="http://www.w3.org/1999/xlink" x="0px" y="0px" viewBox="0 0 1000 1000" enable-background="new 0 0 1000 1000" xml:space="preserve">
<metadata> Svg Vector Icons : http://www.onlinewebfonts.com/icon </metadata>
<g><g transform="translate(0.000000,511.000000) scale(0.100000,-0.100000)"><path d="M1100.8,4321.8c-197.2-68.4-370.8-231.4-575.9-533.9C133.1,3206.8,1.6,2541.4,175.1,2015.5c31.5-99.9,94.7-234,139.4-299.8c99.9-149.9,365.5-331.3,568-391.8l155.2-44.7V335.1V-609l-102.6-94.7l-102.6-94.7l-15.8-368.2c-7.9-202.5-34.2-633.8-57.9-959.9c-21-326.1-47.3-823.1-55.2-1104.5c-13.1-457.6-10.5-523.3,31.6-604.8c105.2-207.8,244.6-297.2,460.2-297.2c202.5,0,376,105.2,470.7,289.3c39.4,76.3,36.8,552.2-10.5,1572.6c-21,462.8-39.4,959.9-39.4,1104.5c0,239.3-5.3,273.5-65.7,362.9c-36.8,52.6-97.3,105.2-131.5,113.1l-65.7,15.8v957.2v957.2l73.6,15.8c318.2,71,431.3,123.6,602.2,281.4c205.1,189.3,265.6,373.4,289.3,859.9c15.8,386.6-13.1,547-173.6,923c-57.9,136.7-118.3,299.8-134.1,365.5c-65.7,252.5-231.4,470.7-436.5,583.8C1395.3,4363.9,1263.9,4379.6,1100.8,4321.8z"/><path d="M9126.8,3419.8l-68.4-52.6v-873.1v-870.5l-57.9,57.9c-57.9,57.9-60.5,73.6-68.4,736.3c-7.9,739-15.8,767.9-165.7,767.9c-152.5,0-155.2-13.1-155.2-810c0-649.6,5.3-739,50-833.6c52.6-115.7,173.6-231.4,310.3-297.2l86.8-42.1V308.8V-588l-97.3-81.5l-97.3-81.5l-7.9-286.6c-5.3-157.8-26.3-746.9-50-1312.3c-55.2-1296.5-50-1417.5,55.2-1570c97.3-136.8,244.6-215.7,412.9-215.7c165.7,0,323.5,107.8,410.2,281.4l65.7,126.2l-31.6,794.2c-18.4,436.6-36.8,1044-44.7,1346.4c-15.8,720.6-21.1,752.1-131.5,894.1l-89.4,118.3V314v888.9l86.8,42.1c139.4,65.7,244.6,170.9,305.1,297.2c52.6,110.5,55.2,160.4,55.2,823.1v707.4l-65.7,60.5c-55.2,52.6-78.9,57.9-136.8,36.8c-128.8-44.7-139.4-99.9-139.4-807.3c0-620.6-13.2-754.8-78.9-754.8c-13.1,0-26.3,352.4-31.6,852l-7.9,854.7l-76.3,78.9C9271.5,3488.1,9221.5,3493.4,9126.8,3419.8z"/><path d="M4850.9,2736c-988.8-126.2-1843.5-883.6-2109.1-1867.1c-84.1-315.6-84.1-859.9,0-1180.8c241.9-899.4,965.1-1601.5,1888.2-1833c249.8-63.1,875.7-63.1,1125.5,0c923,231.4,1643.6,930.9,1888.2,1835.6c78.9,297.2,84.2,836.3,10.5,1128.2C7330.7,2089.1,6142.1,2901.7,4850.9,2736z M5718.7,2357.3C6749.5,2086.5,7441.2,1092.4,7322.8,45.8c-86.8-744.2-549.6-1385.9-1238.6-1709.3c-268.2-128.8-462.9-176.2-786.3-192c-1175.5-60.5-2214.3,846.8-2280,1993.4c-60.5,1028.2,699.5,2011.8,1727.8,2235.3C5013.9,2433.6,5453.1,2425.7,5718.7,2357.3z"/><path d="M4969.2,1907.7c-341.9-52.6-670.6-220.9-923.1-470.7c-323.5-318.2-483.9-702.2-483.9-1149.2c0-302.4,36.8-462.8,160.4-723.2c252.5-531.2,786.3-886.2,1378-920.4c788.9-44.7,1509.5,476,1725.1,1241.2c55.2,194.6,47.4,649.6-13.2,828.4c-236.7,704.8-825.7,1162.4-1538.4,1193.9C5150.6,1915.6,5013.9,1912.9,4969.2,1907.7z"/></g></g>
</svg>