<?xml version="1.0" encoding="utf-8"?>
<!-- Generator: Adobe Illustrator 19.2.1, SVG Export Plug-In . SVG Version: 6.00 Build 0)  -->
<svg version="1.1" id="Layer_1" xmlns="http://www.w3.org/2000/svg" xmlns:xlink="http://www.w3.org/1999/xlink" x="0px" y="0px"
	 viewBox="0 0 178.3 140" style="enable-background:new 0 0 178.3 140;" xml:space="preserve">
<style type="text/css">
	.st0{fill:#4C4C4C;}
</style>
<g>
	<g>
		<g>
			<path class="st0" d="M65.4,81.3c-4.6,2.9-8.7,6.4-12,10.5c-3.3,4.1-5.9,8.6-7.5,13.5c-0.7,2.1,0.6,4.3,2.9,5
				c2.3,0.6,4.7-0.5,5.4-2.6c1.4-4,3.5-7.7,6.2-11.1c2.7-3.3,6.1-6.3,9.9-8.6c2-1.2,2.5-3.7,1.2-5.5C70.1,80.6,67.4,80.1,65.4,81.3z
				"/>
		</g>
		<g>
			<ellipse class="st0" cx="79.6" cy="79.5" rx="4.4" ry="4"/>
		</g>
	</g>
	<g>
		<path class="st0" d="M173.3,123.3h-12.1v-0.5c0-18.3-6.8-35.7-19.3-49.1c-12.4-13.3-29.1-21.4-47.1-22.8l-0.7-0.1l3.4-7h1.8
			c1.3,0,2.4-1.1,2.4-2.4v-2.9c0-1.3-1.1-2.4-2.4-2.4H78.9c-1.3,0-2.4,1.1-2.4,2.4v2.9c0,1.3,1.1,2.4,2.4,2.4h1.8l3.4,7l-0.7,0.1
			c-18,1.4-34.8,9.5-47.1,22.8c-12.4,13.4-19.3,30.8-19.3,49.1v0.5H4.8c-1.3,0-2.4,1.1-2.4,2.4v2.9c0,1.3,1.1,2.4,2.4,2.4h11.8
			l4.3,4.3c1,1,2.3,1.6,3.8,1.6h128.8c1.5,0,2.7-0.5,3.8-1.6l4.3-4.3h11.8c1.3,0,2.4-1.1,2.4-2.4v-2.9
			C175.7,124.4,174.6,123.3,173.3,123.3z M147.6,123.3H30.5v-0.5c0-32.3,26.3-58.6,58.6-58.6c32.3,0,58.6,26.3,58.6,58.6V123.3z"/>
	</g>
</g>
</svg>
