<?xml version="1.0" encoding="utf-8"?>
<svg version="1.1" x="0px" y="0px" viewBox="0 0 1000 1000" enable-background="new 0 0 1000 1000" xmlns="http://www.w3.org/2000/svg">
  <defs>
    <pattern id="pattern-0" x="0" y="0" width="20" height="20" patternUnits="userSpaceOnUse" viewBox="0 0 100 100">
      <path d="M 0 0 L 50 0 L 50 100 L 0 100 Z" style="fill: black;"/>
    </pattern>
  </defs>
  <g transform="matrix(1, 0, 0, 1, -9.54199, -5.725194)">
    <g transform="translate(0.000000,512.000000) scale(0.100000,-0.100000)">
      <path d="M 5340.174 4984.7 C 5307.574 4963.601 5240.474 4898.4 5190.574 4838.9 C 4981.474 4580 4831.875 4252 4758.974 3889.5 L 4735.974 3782.1 L 4586.375 3759.1 C 4384.974 3726.5 4227.674 3674.7 4016.674 3569.2 L 3840.174 3482.9 L 3669.474 3552 C 2923.374 3849.299 2131.174 3768.7 1557.674 3335.3 C 1216.274 3076.4 928.574 2648.6 824.974 2249.7 C 744.374 1939 723.274 1676.199 734.874 1127.599 C 740.674 847.599 759.774 511.9 775.174 379.6 C 990.074 -1331.401 1550.174 -2975.1 2240.674 -3936.1 C 2530.274 -4337 2852.574 -4605.5 3172.874 -4712.899 C 3470.174 -4812.6 3656.174 -4799.201 4049.374 -4655.399 L 4275.674 -4572.899 L 4425.274 -4647.701 C 4770.474 -4822.3 5184.774 -4822.3 5587.574 -4645.8 L 5756.375 -4571 L 5884.875 -4628.5 C 6047.875 -4703.3 6366.274 -4780 6504.375 -4780 C 6648.274 -4780 6872.674 -4720.6 7033.774 -4638.1 C 7455.774 -4427.1 7862.375 -3932.3 8245.975 -3167 C 8692.875 -2277 9055.375 -1068.7 9214.575 53.4 C 9285.575 552.099 9293.175 672.9 9293.175 1242.599 C 9293.175 1772 9289.375 1846.8 9250.975 2040.5 C 9176.175 2401.1 9095.575 2600.5 8909.575 2882.5 C 8435.774 3594.1 7589.974 3885.601 6667.375 3651.6 C 6569.574 3624.7 6433.375 3582.5 6368.174 3555.7 L 6247.375 3507.8 L 6134.174 3565.3 C 5978.774 3643.9 5716.074 3728.3 5539.574 3757.1 C 5365.074 3785.9 5368.875 3778.2 5439.875 3996.799 C 5503.174 4192.4 5600.974 4378.5 5708.375 4503.2 C 5754.375 4556.9 5798.474 4624 5804.274 4649 C 5834.974 4769.799 5737.174 4940.5 5606.674 4994.2 C 5518.574 5032.7 5409.274 5026.9 5340.174 4984.7 Z" style="stroke-linecap: round; stroke: rgb(248, 6, 6); fill-rule: evenodd; fill: rgb(244, 11, 11);"/>
      <path d="M 5810.011 3409.183 C 6065.111 3334.383 6224.311 3242.283 6395.011 3071.583 C 6510.111 2956.483 6565.711 2881.683 6621.311 2770.483 C 6703.811 2599.783 6753.711 2563.383 6897.511 2563.383 C 7144.911 2563.383 7263.811 2803.183 7141.111 3048.683 C 7112.311 3104.283 7064.411 3184.883 7033.711 3230.883 C 7001.111 3276.883 6980.011 3319.083 6985.811 3322.983 C 7006.911 3344.083 7208.311 3388.183 7369.411 3405.483 C 7555.511 3426.583 7781.811 3409.283 7956.311 3357.583 C 8403.211 3229.083 8800.212 2784.083 8907.611 2294.983 C 8949.812 2101.282 8967.111 1387.782 8938.312 1044.383 C 8827.012 -225.317 8437.712 -1686.917 7946.711 -2653.617 C 7743.411 -3058.317 7565.011 -3319.217 7346.311 -3535.917 C 7066.311 -3814.018 6845.711 -3909.917 6598.311 -3860.117 C 6533.111 -3848.617 6481.311 -3833.217 6481.311 -3825.518 C 6481.311 -3819.817 6494.711 -3798.717 6510.111 -3779.517 C 6588.711 -3672.117 6546.611 -3468.817 6423.811 -3382.517 C 6349.011 -3328.817 6199.411 -3309.617 6115.011 -3344.217 C 6082.411 -3357.617 6003.811 -3434.317 5932.811 -3522.617 C 5787.011 -3704.817 5696.911 -3785.417 5558.811 -3856.317 C 5466.711 -3904.317 5434.111 -3910.018 5273.011 -3910.018 C 5115.711 -3910.018 5075.411 -3902.317 4979.511 -3858.217 C 4716.711 -3733.517 4488.511 -3424.717 4300.511 -2933.717 C 4227.611 -2738.117 4202.711 -2703.517 4095.311 -2649.817 C 3901.611 -2550.117 3661.811 -2705.417 3661.811 -2931.817 C 3661.811 -3027.717 3834.411 -3440.117 3962.911 -3654.917 C 4020.411 -3750.817 4060.711 -3835.217 4051.111 -3842.917 C 4043.411 -3850.617 3995.511 -3871.717 3943.711 -3890.817 C 3629.111 -4007.817 3260.911 -3754.617 2848.511 -3133.217 C 2443.811 -2527.117 2021.911 -1387.818 1791.711 -294.517 C 1636.311 453.483 1580.711 942.583 1580.711 1556.382 C 1582.611 2193.183 1626.711 2407.983 1820.511 2703.383 C 2121.611 3165.683 2589.611 3395.783 3163.111 3361.283 C 3345.311 3351.683 3571.611 3311.383 3596.611 3286.483 C 3602.311 3280.683 3577.411 3234.683 3541.011 3182.883 C 3345.411 2910.583 3222.611 2528.883 3190.011 2106.883 C 3180.411 1964.983 3182.311 1915.083 3209.211 1847.983 C 3293.611 1625.483 3527.611 1565.983 3696.411 1725.182 C 3769.311 1792.282 3790.411 1851.782 3805.711 2026.282 C 3823.011 2221.883 3888.211 2492.383 3957.211 2647.783 C 4117.113 3007.45 4431.238 3272.729 4841.139 3400.714 C 4883.686 3413.999 4927.265 3425.805 4971.811 3436.083 C 5154.011 3478.283 5623.911 3462.883 5810.011 3409.183 Z" style="stroke-linecap: round; stroke: rgb(248, 6, 6); fill-rule: evenodd; fill: rgb(244, 11, 11);"/>
      <path d="M 6642.24 1634.867 C 6567.441 1586.966 6507.941 1512.065 6483.042 1433.466 C 6473.441 1398.966 6460.042 1061.366 6454.24 681.566 C 6440.841 -173.834 6410.143 -684.033 6335.341 -1303.634 C 6293.143 -1656.534 6197.24 -2199.334 6135.841 -2450.634 C 6084.042 -2655.834 6082.143 -2673.134 6108.941 -2761.334 C 6156.941 -2922.434 6293.143 -2999.134 6458.042 -2955.033 C 6674.74 -2895.533 6726.542 -2772.834 6853.143 -2032.434 C 7012.341 -1090.635 7075.643 -302.334 7075.643 750.666 C 7075.643 1360.565 7073.74 1393.166 7035.341 1471.867 C 6954.841 1636.767 6768.841 1713.465 6642.24 1634.867 Z" style="fill: rgb(16, 15, 15); stroke-linecap: round; stroke: rgb(248, 6, 6);"/>
      <path d="M 5334.09 4984.49 C 5301.488 4963.391 5234.389 4898.191 5184.489 4838.691 C 4975.389 4579.791 4825.789 4251.791 4752.889 3889.291 L 4729.889 3781.89 L 4580.289 3758.89 C 4378.889 3726.291 4221.59 3674.491 4010.59 3568.991 L 3834.09 3482.691 L 3663.39 3551.791 C 2917.289 3849.089 2125.09 3768.491 1551.59 3335.09 C 1210.189 3076.191 922.489 2648.39 818.89 2249.491 C 738.289 1938.791 717.189 1675.989 728.789 1127.39 C 734.589 847.39 753.689 511.691 769.089 379.39 C 983.989 -1331.61 1544.09 -2975.31 2234.59 -3936.31 C 2524.189 -4337.209 2846.489 -4605.709 3166.789 -4713.109 C 3464.09 -4812.81 3650.09 -4799.41 4043.289 -4655.609 L 4269.59 -4573.109 L 4419.189 -4647.91 C 4764.389 -4822.51 5178.689 -4822.51 5581.488 -4646.01 L 5750.289 -4571.209 L 5878.789 -4628.709 C 6041.789 -4703.51 6360.189 -4780.209 6498.289 -4780.209 C 6642.189 -4780.209 6866.59 -4720.81 7027.689 -4638.31 C 7449.689 -4427.31 7856.289 -3932.509 8239.891 -3167.209 C 8686.789 -2277.211 9049.289 -1068.91 9208.49 53.191 C 9279.49 551.89 9287.09 672.691 9287.09 1242.39 C 9287.09 1771.791 9283.289 1846.59 9244.891 2040.291 C 9170.09 2400.89 9089.49 2600.291 8903.49 2882.291 C 8429.689 3593.89 7583.889 3885.391 6661.289 3651.39 C 6563.488 3624.491 6427.289 3582.291 6362.09 3555.491 L 6241.289 3507.59 L 6128.09 3565.09 C 5972.689 3643.691 5709.988 3728.09 5533.488 3756.89 C 5358.988 3785.691 5362.789 3777.991 5433.789 3996.589 C 5497.09 4192.191 5594.889 4378.291 5702.289 4502.99 C 5748.289 4556.691 5792.389 4623.791 5798.189 4648.791 C 5828.889 4769.589 5731.09 4940.291 5600.59 4993.99 C 5512.488 5032.49 5403.189 5026.691 5334.09 4984.49 Z M 5575.789 3104.791 C 5830.889 3029.991 5990.09 2937.89 6160.789 2767.191 C 6275.889 2652.09 6331.488 2577.291 6387.09 2466.09 C 6469.59 2295.39 6519.488 2258.991 6663.289 2258.991 C 6910.689 2258.991 7029.59 2498.791 6906.889 2744.291 C 6878.09 2799.89 6830.189 2880.491 6799.488 2926.491 C 6766.889 2972.491 6745.789 3014.691 6751.59 3018.59 C 6772.689 3039.691 6974.09 3083.791 7135.189 3101.09 C 7321.289 3122.191 7547.59 3104.89 7722.09 3053.191 C 8168.988 2924.691 8565.99 2479.691 8673.391 1990.59 C 8715.59 1796.89 8732.891 1083.39 8704.09 739.991 C 8592.789 -529.709 8203.49 -1991.31 7712.488 -2958.009 C 7509.189 -3362.709 7330.789 -3623.61 7112.09 -3840.31 C 6832.09 -4118.41 6611.488 -4214.31 6364.09 -4164.509 C 6298.889 -4153.009 6247.09 -4137.609 6247.09 -4129.91 C 6247.09 -4124.209 6260.488 -4103.109 6275.889 -4083.909 C 6354.488 -3976.509 6312.389 -3773.209 6189.59 -3686.909 C 6114.789 -3633.209 5965.189 -3614.009 5880.789 -3648.61 C 5848.189 -3662.009 5769.59 -3738.709 5698.59 -3827.009 C 5552.789 -4009.209 5462.689 -4089.81 5324.59 -4160.709 C 5232.489 -4208.709 5199.889 -4214.41 5038.789 -4214.41 C 4881.489 -4214.41 4841.189 -4206.709 4745.289 -4162.609 C 4482.489 -4037.909 4254.289 -3729.11 4066.289 -3238.11 C 3993.389 -3042.509 3968.489 -3007.909 3861.09 -2954.209 C 3667.39 -2854.509 3427.59 -3009.81 3427.59 -3236.209 C 3427.59 -3332.11 3600.189 -3744.509 3728.689 -3959.31 C 3786.189 -4055.209 3826.489 -4139.609 3816.89 -4147.31 C 3809.189 -4155.009 3761.289 -4176.109 3709.489 -4195.209 C 3394.89 -4312.209 3026.689 -4059.009 2614.289 -3437.61 C 2209.59 -2831.509 1787.689 -1692.211 1557.489 -598.91 C 1402.09 149.09 1346.489 638.191 1346.489 1251.989 C 1348.39 1888.791 1392.489 2103.59 1586.289 2398.991 C 1887.39 2861.291 2355.39 3091.39 2928.89 3056.89 C 3111.09 3047.291 3337.39 3006.991 3362.39 2982.09 C 3368.09 2976.291 3343.189 2930.291 3306.789 2878.491 C 3111.189 2606.191 2988.39 2224.491 2955.789 1802.491 C 2946.189 1660.591 2948.09 1610.691 2974.989 1543.591 C 3059.39 1321.091 3293.39 1261.591 3462.189 1420.79 C 3535.09 1487.89 3556.189 1547.39 3571.489 1721.89 C 3588.789 1917.491 3653.989 2187.991 3722.989 2343.39 C 3882.891 2703.057 4197.016 2968.337 4606.918 3096.322 C 4649.465 3109.607 4693.043 3121.412 4737.59 3131.691 C 4919.789 3173.89 5389.689 3158.491 5575.789 3104.791 Z" style="stroke-linecap: round; stroke: rgb(248, 6, 6); fill-rule: evenodd; fill: rgb(13, 12, 12);"/>
      <path d="M 21680.52 1507.915 C 21605.721 1460.013 21546.221 1385.113 21521.32 1306.513 C 21511.721 1272.013 21498.32 934.414 21492.52 554.614 C 21479.121 -300.786 21448.422 -810.985 21373.621 -1430.586 C 21331.422 -1783.486 21235.52 -2326.286 21174.121 -2577.586 C 21122.32 -2782.786 21120.422 -2800.086 21147.221 -2888.286 C 21195.221 -3049.386 21331.422 -3126.086 21496.32 -3081.985 C 21713.02 -3022.485 21764.82 -2899.786 21891.422 -2159.386 C 22050.621 -1217.588 22113.922 -429.286 22113.922 623.714 C 22113.922 1233.613 22112.02 1266.214 22073.621 1344.915 C 21993.121 1509.814 21807.121 1586.512 21680.52 1507.915 Z" style="fill: rgb(16, 15, 15); stroke-linecap: round; stroke: rgb(248, 6, 6);"/>
    </g>
  </g>
</svg>