<?xml version="1.0" encoding="utf-8"?>
<svg version="1.1" x="0px" y="0px" viewBox="0 0 1000 1000" enable-background="new 0 0 1000 1000" xmlns="http://www.w3.org/2000/svg">
  <defs>
    <pattern id="pattern-0" x="0" y="0" width="20" height="20" patternUnits="userSpaceOnUse" viewBox="0 0 100 100">
      <path d="M 0 0 L 50 0 L 50 100 L 0 100 Z" style="fill: black;"/>
    </pattern>
  </defs>
  <g transform="matrix(1, 0, 0, 1, -9.54199, -5.725194)">
    <g transform="translate(0.000000,512.000000) scale(0.100000,-0.100000)">
      <path d="M 5327.5 4984.7 C 5294.9 4963.599999999999 5227.8 4898.4 5177.9 4838.9 C 4968.799999999999 4580 4819.2 4252 4746.299999999999 3889.4999999999995 L 4723.299999999999 3782.0999999999995 L 4573.699999999999 3759.0999999999995 C 4372.299999999999 3726.4999999999995 4214.999999999999 3674.6999999999994 4003.999999999999 3569.1999999999994 L 3827.499999999999 3482.899999999999 L 3656.7999999999993 3551.999999999999 C 2910.6999999999994 3849.2999999999993 2118.499999999999 3768.699999999999 1544.999999999999 3335.2999999999993 C 1203.599999999999 3076.399999999999 915.8999999999991 2648.5999999999995 812.299999999999 2249.6999999999994 C 731.699999999999 1938.9999999999993 710.599999999999 1676.1999999999994 722.199999999999 1127.5999999999995 C 727.999999999999 847.5999999999995 747.099999999999 511.8999999999994 762.499999999999 379.59999999999945 C 977.4 -1331.4 1537.5 -2975.1 2228 -3936.1 C 2517.6 -4337 2839.9 -4605.5 3160.2 -4712.9 C 3457.5 -4812.599999999999 3643.5 -4799.2 4036.7 -4655.4 L 4263 -4572.9 L 4412.6 -4647.7 C 4757.8 -4822.3 5172.1 -4822.3 5574.900000000001 -4645.8 L 5743.700000000001 -4571 L 5872.200000000001 -4628.5 C 6035.200000000001 -4703.3 6353.6 -4780 6491.700000000001 -4780 C 6635.6 -4780 6860.000000000001 -4720.6 7021.1 -4638.1 C 7443.1 -4427.1 7849.700000000001 -3932.3 8233.300000000001 -3167.0000000000005 C 8680.2 -2277.0000000000005 9042.7 -1068.7000000000003 9201.900000000001 53.399999999999636 C 9272.900000000001 552.0999999999997 9280.500000000002 672.8999999999996 9280.500000000002 1242.5999999999997 C 9280.500000000002 1771.9999999999995 9276.700000000003 1846.7999999999997 9238.300000000001 2040.4999999999995 C 9163.500000000002 2401.0999999999995 9082.900000000001 2600.4999999999995 8896.900000000001 2882.4999999999995 C 8423.100000000002 3594.0999999999995 7577.300000000001 3885.5999999999995 6654.700000000002 3651.5999999999995 C 6556.9000000000015 3624.6999999999994 6420.700000000002 3582.4999999999995 6355.500000000002 3555.6999999999994 L 6234.700000000002 3507.7999999999993 L 6121.500000000002 3565.2999999999993 C 5966.100000000002 3643.899999999999 5703.4000000000015 3728.2999999999993 5526.9000000000015 3757.0999999999995 C 5352.4000000000015 3785.8999999999996 5356.200000000002 3778.1999999999994 5427.200000000002 3996.7999999999993 C 5490.500000000002 4192.4 5588.300000000002 4378.499999999999 5695.700000000002 4503.199999999999 C 5741.700000000002 4556.899999999999 5785.800000000002 4623.999999999999 5791.600000000001 4648.999999999999 C 5822.300000000001 4769.799999999999 5724.500000000001 4940.499999999999 5594.000000000001 4994.199999999999 C 5505.9 5032.7 5396.6 5026.9 5327.5 4984.7 Z M 5569.2 3105 C 5824.3 3030.2 5983.5 2938.1 6154.2 2767.4 C 6269.3 2652.3 6324.9 2577.5 6380.5 2466.3 C 6463 2295.6000000000004 6512.9 2259.2000000000003 6656.7 2259.2000000000003 C 6904.099999999999 2259.2000000000003 7023 2499.0000000000005 6900.3 2744.5000000000005 C 6871.5 2800.1000000000004 6823.6 2880.7000000000003 6792.900000000001 2926.7000000000003 C 6760.3 2972.7000000000003 6739.200000000001 3014.9 6745.000000000001 3018.8 C 6766.100000000001 3039.9 6967.500000000001 3084 7128.600000000001 3101.3 C 7314.700000000002 3122.4 7541.000000000001 3105.1000000000004 7715.500000000001 3053.4 C 8162.400000000001 2924.9 8559.400000000001 2479.9 8666.800000000001 1990.8000000000002 C 8709.000000000002 1797.1000000000001 8726.300000000001 1083.6000000000001 8697.500000000002 740.2000000000003 C 8586.200000000003 -529.4999999999998 8196.900000000001 -1991.1 7705.9000000000015 -2957.7999999999997 C 7502.600000000001 -3362.4999999999995 7324.200000000002 -3623.3999999999996 7105.500000000002 -3840.0999999999995 C 6825.500000000002 -4118.2 6604.9000000000015 -4214.099999999999 6357.500000000002 -4164.299999999999 C 6292.300000000002 -4152.799999999999 6240.500000000002 -4137.4 6240.500000000002 -4129.699999999999 C 6240.500000000002 -4123.999999999999 6253.9000000000015 -4102.899999999999 6269.300000000002 -4083.699999999999 C 6347.900000000002 -3976.299999999999 6305.800000000002 -3772.999999999999 6183.000000000002 -3686.699999999999 C 6108.200000000002 -3632.999999999999 5958.600000000002 -3613.799999999999 5874.200000000002 -3648.3999999999987 C 5841.600000000001 -3661.799999999999 5763.000000000002 -3738.4999999999986 5692.000000000002 -3826.799999999999 C 5546.200000000002 -4008.9999999999986 5456.100000000002 -4089.599999999999 5318.000000000002 -4160.499999999999 C 5225.9000000000015 -4208.499999999999 5193.300000000002 -4214.199999999999 5032.200000000002 -4214.199999999999 C 4874.9000000000015 -4214.199999999999 4834.600000000001 -4206.499999999999 4738.700000000002 -4162.399999999999 C 4475.9000000000015 -4037.699999999999 4247.700000000002 -3728.8999999999987 4059.7000000000016 -3237.8999999999987 C 3986.8000000000015 -3042.299999999999 3961.9000000000015 -3007.699999999999 3854.500000000002 -2953.9999999999986 C 3660.800000000002 -2854.299999999999 3421.000000000002 -3009.5999999999985 3421.000000000002 -3235.9999999999986 C 3421.000000000002 -3331.8999999999987 3593.6000000000017 -3744.299999999999 3722.1000000000017 -3959.0999999999985 C 3779.6000000000017 -4054.9999999999986 3819.900000000002 -4139.399999999999 3810.3000000000015 -4147.0999999999985 C 3802.6000000000017 -4154.799999999998 3754.7000000000016 -4175.899999999999 3702.9000000000015 -4194.999999999998 C 3388.3000000000015 -4311.999999999998 3020.1000000000013 -4058.7999999999984 2607.7000000000016 -3437.3999999999983 C 2203 -2831.3 1781.1 -1692 1550.9 -598.7 C 1395.5 149.29999999999995 1339.9 638.3999999999999 1339.9 1252.2 C 1341.8000000000002 1889 1385.9 2103.8 1579.7 2399.2 C 1880.8000000000002 2861.5 2348.8 3091.6 2922.3 3057.1 C 3104.5 3047.5 3330.8 3007.2 3355.8 2982.2999999999997 C 3361.5 2976.4999999999995 3336.6000000000004 2930.4999999999995 3300.2000000000003 2878.7 C 3104.6000000000004 2606.3999999999996 2981.8 2224.7 2949.2000000000003 1802.6999999999998 C 2939.6000000000004 1660.7999999999997 2941.5000000000005 1610.8999999999999 2968.4 1543.7999999999997 C 3052.8 1321.2999999999997 3286.8 1261.7999999999997 3455.6 1420.9999999999998 C 3528.5 1488.0999999999997 3549.6 1547.5999999999997 3564.9 1722.1 C 3582.2000000000003 1917.6999999999998 3647.4 2188.2 3716.4 2343.6 C 3892.9 2740.6 4257.3 3022.6 4731 3131.8999999999996 C 4913.2 3174.1 5383.1 3158.7 5569.2 3105 Z" style="stroke-linecap: round; stroke: rgb(248, 6, 6); fill-rule: evenodd; fill: rgb(3, 3, 3);"/>
      <path d="M 6581.4 1619.277 C 6506.601 1571.377 6447.101 1496.476 6422.201 1417.877 C 6412.601 1383.377 6399.201 1045.777 6393.4 665.977 C 6380 -189.423 6349.301 -699.623 6274.5 -1319.223 C 6232.301 -1672.123 6136.4 -2214.923 6075 -2466.223 C 6023.201 -2671.423 6021.301 -2688.723 6048.101 -2776.923 C 6096.101 -2938.023 6232.301 -3014.723 6397.201 -2970.623 C 6613.9 -2911.123 6665.701 -2788.423 6792.301 -2048.023 C 6951.5 -1106.223 7014.801 -317.923 7014.801 735.077 C 7014.801 1344.976 7012.9 1377.577 6974.5 1456.277 C 6894 1621.177 6708 1697.877 6581.4 1619.277 Z" style="fill: rgb(16, 15, 15); stroke-linecap: round; stroke: rgb(248, 6, 6);"/>
    </g>
  </g>
</svg>